<?xml version="1.0" standalone="no"?>
<!DOCTYPE svg PUBLIC "-//W3C//DTD SVG 20010904//EN"
 "http://www.w3.org/TR/2001/REC-SVG-20010904/DTD/svg10.dtd">
<svg version="1.0" xmlns="http://www.w3.org/2000/svg"
 width="800.000000pt" height="800.000000pt" viewBox="0 0 800.000000 800.000000"
 preserveAspectRatio="xMidYMid meet">
<metadata>
Created by potrace 1.11, written by Peter Selinger 2001-2013
</metadata>
<g transform="translate(0.000000,800.000000) scale(0.100000,-0.100000)"
fill="#000000" stroke="none">
<path d="M2547 5863 c-2 -5 -3 -53 -3 -108 l1 -100 30 0 30 0 3 108 3 107 -30
0 c-16 0 -31 -3 -34 -7z"/>
<path d="M1979 5698 c-8 -36 -6 -49 9 -57 9 -5 22 -8 27 -8 6 1 11 -8 13 -20
2 -13 8 -24 13 -24 5 -1 18 -3 29 -4 11 -1 25 -3 30 -4 6 0 10 -16 10 -35 0
-52 43 -62 52 -12 5 26 -5 50 -22 52 -5 1 -14 2 -19 3 -5 0 -11 11 -13 24 -2
17 -10 23 -40 25 -32 3 -37 7 -40 30 -2 19 -10 28 -25 30 -13 2 -23 2 -24 0z"/>
<path d="M3165 5685 c-3 -8 -7 -22 -10 -30 -2 -8 -16 -15 -30 -15 -19 0 -25
-5 -25 -23 0 -16 -9 -26 -29 -33 -27 -11 -30 -21 -22 -76 1 -3 9 -5 19 -3 9 2
20 4 25 4 4 1 7 17 7 36 0 24 5 35 15 36 8 1 20 2 27 3 7 0 15 12 18 26 4 16
13 25 27 26 40 2 51 11 46 38 -4 21 -11 26 -34 26 -18 0 -32 -6 -34 -15z"/>
<path d="M2490 5520 c0 -23 -5 -30 -20 -31 -11 -1 -43 -2 -72 -2 -47 -2 -53
-5 -58 -27 -5 -19 -12 -25 -33 -24 -22 1 -27 -3 -28 -25 -3 -77 -3 -76 -31
-73 -20 2 -30 -3 -39 -20 -7 -13 -12 -24 -11 -25 8 -12 -2 -21 -23 -19 -29 4
-33 -8 -31 -79 1 -49 2 -50 33 -53 l32 -3 -2 61 c-3 65 3 75 43 75 19 0 26 6
29 25 4 29 17 40 43 35 15 -3 18 3 18 46 0 32 4 49 13 50 6 1 40 1 74 1 60 -1
62 0 65 26 3 27 4 27 83 28 44 1 86 2 93 3 6 0 12 14 12 31 l0 30 -95 0 -95 0
0 -30z"/>
<path d="M6477 5533 c-2 -1 -34 -5 -72 -8 -39 -2 -104 -9 -145 -14 -41 -6 -97
-13 -125 -16 -72 -8 -114 -13 -165 -20 -25 -3 -48 -5 -51 -3 -8 4 -39 -22 -39
-33 0 -11 31 -40 38 -35 4 2 27 6 52 10 111 14 229 28 275 32 28 3 61 7 75 10
14 2 52 7 85 9 131 12 155 20 155 51 0 23 -3 25 -40 22 -22 -1 -42 -3 -43 -5z"/>
<path d="M2680 5460 c0 -27 0 -28 63 -26 84 3 87 1 87 -50 0 -24 3 -44 8 -45
44 -4 66 -22 57 -47 -3 -8 7 -15 25 -18 27 -6 29 -9 28 -53 0 -84 -2 -81 42
-81 l40 0 -1 65 c-1 36 -4 65 -8 66 -3 1 -19 2 -36 3 -25 1 -31 6 -35 31 -4
21 -11 29 -22 27 -21 -3 -33 15 -34 53 -3 52 -4 56 -14 50 -20 -12 -50 6 -50
31 0 23 -2 24 -75 23 l-75 -1 0 -28z"/>
<path d="M6575 5480 c-5 -9 -3 -46 11 -165 3 -22 7 -60 10 -85 5 -49 29 -254
49 -410 2 -14 6 -54 10 -90 4 -36 9 -78 12 -95 2 -16 5 -48 7 -70 2 -22 7 -60
10 -85 7 -58 16 -132 22 -195 2 -27 6 -64 9 -81 4 -25 17 -148 17 -164 1 -28
-5 -39 -24 -42 -18 -2 -24 -11 -26 -35 -3 -35 -8 -36 -99 -37 -13 0 -23 -3
-23 -6 0 -3 -12 -6 -27 -6 -32 -1 -132 -12 -183 -19 -19 -2 -54 -7 -77 -10
-24 -3 -62 -7 -85 -10 -61 -8 -105 -13 -168 -20 -30 -4 -66 -8 -80 -10 -14 -2
-50 -7 -80 -10 -30 -3 -66 -8 -80 -10 -14 -2 -50 -7 -80 -10 -80 -9 -90 -13
-86 -38 2 -14 11 -23 27 -25 30 -5 48 -19 45 -37 -3 -23 -10 -26 -65 -27 l-51
-2 0 -616 0 -615 148 2 c81 1 161 2 178 2 l30 1 -1 148 c0 81 3 156 8 166 9
17 24 36 94 113 l22 25 44 -69 c38 -59 68 -112 175 -298 12 -22 28 -50 34 -62
11 -23 13 -23 226 -23 l214 0 -14 23 c-8 12 -52 85 -99 162 -46 77 -89 149
-96 160 -7 11 -15 27 -19 35 -4 8 -10 17 -13 20 -9 8 -30 43 -42 70 -5 13 -13
27 -17 30 -4 3 -16 21 -26 40 -10 19 -39 69 -62 111 -48 84 -50 91 -31 111 6
7 45 53 85 101 41 48 83 98 95 110 77 81 208 238 203 245 -3 5 -98 9 -212 9
l-206 0 -152 -182 c-83 -100 -163 -197 -178 -216 l-28 -33 -1 135 c0 74 -1
171 -1 216 0 59 -3 81 -12 76 -6 -3 -7 -2 -3 3 5 5 12 9 15 10 4 0 36 4 72 8
36 4 78 9 95 11 16 2 52 7 80 10 27 3 66 8 85 10 19 2 71 9 115 14 44 6 105
13 135 16 30 3 62 8 70 10 8 2 49 7 90 10 41 4 79 9 83 12 5 3 7 23 5 44 -2
27 1 39 9 40 27 3 32 4 39 12 5 4 8 20 9 34 0 21 5 27 25 29 14 2 34 5 45 8
11 2 129 5 263 5 l242 1 0 153 0 152 -271 0 c-182 0 -274 4 -280 11 -5 6 -11
35 -13 65 -3 30 -6 54 -6 54 -5 0 -10 173 -14 453 -3 184 -6 336 -8 338 -4 4
-43 12 -64 13 -6 1 -11 7 -11 14 0 6 -3 28 -6 47 -3 19 -9 60 -12 90 -8 67
-10 70 -46 70 -24 0 -29 4 -29 24 0 30 -41 49 -55 26z"/>
<path d="M5835 5392 c-8 -8 -6 -50 3 -55 17 -11 52 13 52 36 0 19 -5 25 -25
25 -13 0 -27 -3 -30 -6z"/>
<path d="M2414 5325 c-1 -5 -4 -19 -6 -30 -2 -11 -9 -21 -16 -21 -6 -1 -21 -2
-32 -3 -14 -1 -20 -8 -20 -26 0 -21 -5 -25 -29 -25 -33 0 -39 -10 -33 -52 4
-23 9 -28 33 -28 25 0 28 4 31 38 3 34 6 37 36 40 24 2 32 8 32 22 0 23 14 33
49 34 21 1 27 7 29 29 2 15 0 28 -5 28 -35 6 -66 3 -69 -6z"/>
<path d="M5776 5321 c-3 -4 -4 -17 -2 -27 2 -10 7 -53 11 -94 4 -41 9 -83 11
-94 3 -19 10 -76 19 -176 3 -30 7 -66 10 -80 2 -14 7 -56 10 -95 4 -38 8 -72
10 -75 9 -14 -15 -33 -46 -37 -50 -6 -60 -5 -102 5 -21 6 -111 11 -200 12 -89
1 -209 3 -267 3 l-105 2 0 70 0 70 245 2 c135 1 275 2 313 2 l67 1 0 150 c0
83 -3 150 -7 151 -43 5 -961 3 -968 -2 -7 -5 -9 -216 -8 -606 1 -329 2 -601 2
-605 1 -4 155 -7 343 -7 287 -1 345 -3 353 -15 6 -8 24 -16 40 -18 21 -2 31
-10 35 -27 6 -26 36 -37 56 -20 15 12 6 49 -12 50 -28 3 -32 4 -40 12 -4 4 -9
13 -10 20 -13 75 -12 67 -29 217 -4 30 -8 69 -10 85 -14 109 -18 156 -19 205
-1 47 2 55 19 58 27 6 33 18 29 57 l-3 33 57 7 c31 4 71 9 87 10 39 3 134 15
160 20 11 2 23 4 26 4 3 1 4 14 1 30 -3 26 0 30 27 36 33 7 33 10 16 145 -3
25 -8 65 -11 90 -3 25 -7 56 -9 70 -2 14 -7 52 -10 85 -3 33 -8 71 -10 85 -3
14 -7 54 -11 89 -7 82 -19 111 -43 111 -11 0 -22 -4 -25 -9z m-365 -983 c9
-13 10 -24 13 -103 l1 -40 -139 0 c-79 0 -145 4 -153 10 -14 10 -17 33 -14
107 l1 37 53 3 c113 6 230 0 238 -14z"/>
<path d="M6267 5233 c-6 -10 -1 -118 8 -193 11 -89 13 -102 19 -160 13 -114
16 -146 21 -185 10 -69 14 -108 20 -170 4 -33 8 -67 11 -76 3 -12 -4 -18 -25
-22 -25 -5 -30 -12 -33 -39 -2 -28 -7 -33 -28 -33 -21 0 -26 -5 -28 -32 -2
-18 -6 -33 -10 -34 -4 0 -16 -2 -27 -4 -11 -2 -40 -7 -65 -10 -25 -3 -61 -7
-80 -10 -19 -2 -61 -7 -92 -10 -64 -7 -58 -12 -73 78 -4 26 -11 37 -23 37 -26
0 -46 -16 -39 -32 8 -21 -5 -36 -33 -40 -37 -5 -49 -16 -43 -37 3 -13 -3 -23
-19 -32 -12 -7 -25 -10 -28 -8 -3 2 -6 -8 -8 -23 -3 -28 -1 -30 43 -32 13 -1
21 -11 26 -34 9 -43 14 -47 55 -43 28 2 34 -1 34 -17 0 -26 21 -42 47 -36 20
5 21 12 20 76 -2 78 -8 71 77 83 21 3 50 7 65 9 73 12 169 22 229 25 6 1 12
11 12 24 0 29 10 43 38 51 12 4 22 13 21 19 -4 34 3 46 28 49 26 3 28 6 24 47
-1 24 -4 53 -7 64 -3 19 -15 112 -19 152 -3 31 -16 137 -21 170 -2 17 -6 57
-9 90 -3 33 -7 69 -9 80 -2 11 -7 49 -11 85 -5 36 -9 74 -11 85 -1 11 -3 30
-3 42 -1 33 -41 67 -54 46z"/>
<path d="M3048 5143 c-19 -5 -20 -11 -20 -133 l0 -75 -39 1 c-22 0 -39 -4 -40
-10 -3 -33 0 -96 5 -104 2 -4 21 -6 41 -4 l36 4 -2 47 c-3 50 6 75 22 65 25
-15 34 16 32 106 -1 96 -6 109 -35 103z"/>
<path d="M3908 5145 c-2 -1 -33 -5 -69 -8 -69 -6 -177 -33 -194 -48 -5 -5 -15
-9 -22 -9 -19 0 -114 -72 -148 -112 -50 -59 -66 -110 -67 -211 -1 -103 4 -125
41 -182 35 -53 83 -98 139 -128 49 -27 223 -82 290 -92 63 -9 192 -52 213 -71
10 -9 19 -27 19 -40 0 -54 -72 -79 -200 -70 -120 8 -244 47 -339 108 -33 20
-48 25 -57 17 -7 -6 -48 -65 -90 -131 l-78 -121 30 -24 c43 -34 234 -122 251
-115 2 0 17 -4 35 -9 34 -10 69 -17 123 -25 40 -6 206 -5 275 1 202 20 369
136 411 286 27 97 13 238 -30 297 -26 36 -69 75 -111 99 -42 24 -155 70 -190
76 -118 22 -299 71 -331 89 -58 32 -51 71 19 107 72 38 303 1 444 -70 31 -16
59 -25 61 -21 3 4 16 27 29 52 14 25 44 80 67 123 24 43 40 84 37 92 -14 37
-250 116 -391 130 -72 8 -163 13 -167 10z"/>
<path d="M2090 5036 l0 -106 28 5 28 5 -1 -56 c-2 -50 0 -57 21 -64 26 -10 26
-10 -9 -97 -16 -41 -23 -50 -36 -44 -9 5 -27 8 -41 6 -22 -1 -25 -7 -26 -41
-1 -21 -2 -44 -3 -51 -1 -6 -15 -10 -35 -8 -23 2 -36 -1 -40 -11 -10 -27 4
-42 37 -40 47 4 47 4 47 25 0 24 13 33 34 25 13 -5 13 -10 1 -37 -20 -44 -135
-358 -135 -367 0 -4 -8 -25 -17 -46 -9 -22 -18 -43 -19 -49 -2 -5 -14 -41 -28
-79 -15 -40 -23 -73 -18 -78 5 -5 90 -10 188 -11 l179 -1 33 102 c31 95 35
102 60 103 15 1 31 1 36 0 27 -5 45 12 43 42 l-2 32 100 -2 c55 -1 128 -2 163
-2 l62 -1 0 -55 c0 -56 -8 -64 -53 -56 -8 1 -42 2 -67 1 -8 -1 -58 0 -110 1
l-95 2 0 -44 0 -44 38 3 c34 3 37 1 37 -22 0 -29 -3 -28 105 -30 77 -1 80 0
85 23 3 17 15 27 34 32 35 10 48 1 71 -46 9 -19 21 -35 28 -36 76 -5 330 0
336 7 5 5 -9 56 -31 114 -94 247 -226 624 -221 635 2 7 14 12 26 11 20 -1 22
4 25 67 l3 67 -29 0 -30 0 2 -61 c2 -62 -1 -68 -41 -73 -14 -2 -19 -13 -21
-49 -3 -40 -6 -47 -25 -48 -12 -1 -26 -2 -32 -4 -5 -1 -15 -3 -22 -3 -6 -1
-13 -12 -15 -24 -3 -21 -9 -23 -66 -24 l-62 0 2 200 3 201 25 1 c54 2 58 4 58
29 l0 25 -125 0 -124 0 3 -27 c3 -25 7 -28 41 -28 21 0 41 -5 45 -12 4 -6 7
-96 7 -200 l0 -188 -65 0 c-51 0 -65 3 -65 15 -1 26 -15 40 -41 40 -13 0 -25
3 -25 8 -1 4 -3 23 -4 42 -2 19 -4 38 -4 41 -1 4 -14 5 -31 4 -28 -2 -30 0
-31 34 -1 20 0 51 1 69 2 33 1 34 -37 30 l-38 -3 0 60 c0 55 -2 60 -22 60 -12
0 -25 4 -30 8 -4 5 -8 50 -8 100 l0 92 -27 3 -28 3 0 -105z m643 -668 c-1 -16
-1 -40 -2 -56 l-1 -27 -142 1 c-79 1 -148 2 -155 3 -11 1 -17 87 -7 103 3 4
73 6 156 5 l152 -2 -1 -27z"/>
<path d="M620 5112 c-7 -3 -10 -200 -10 -614 l0 -610 368 5 c343 5 396 7 447
24 11 4 22 7 25 8 3 0 26 10 51 23 70 34 125 87 155 149 24 48 28 71 31 157 3
128 -11 174 -77 245 -28 30 -47 58 -43 65 4 6 17 25 29 41 20 27 32 55 41 95
11 45 4 191 -11 222 -29 60 -75 106 -139 137 -101 49 -89 48 -689 55 -92 0
-172 0 -178 -2z m622 -324 c34 -22 44 -63 23 -95 -24 -36 -48 -41 -175 -39
l-115 1 -3 76 -3 75 124 0 c98 -1 128 -4 149 -18z m-10 -432 c54 -8 65 -15 79
-47 10 -24 9 -35 -2 -57 -27 -52 -37 -54 -232 -55 -53 0 -100 3 -103 6 -9 9
-5 140 4 149 13 13 179 16 254 4z"/>
<path d="M1806 5080 c-1 -3 -1 -11 0 -17 1 -7 2 -17 3 -23 0 -6 39 -10 91 -10
l90 0 0 29 0 30 -91 -2 c-50 -1 -92 -4 -93 -7z"/>
<path d="M3160 5059 l0 -28 104 0 105 0 -2 27 -2 27 -103 1 -102 1 0 -28z"/>
<path d="M3069 4668 c-1 -2 -2 -18 -4 -37 -2 -29 2 -35 27 -45 15 -6 26 -16
24 -22 -7 -19 16 -34 52 -34 25 0 33 -4 29 -14 -7 -17 11 -36 35 -36 13 0 18
8 18 25 0 22 -10 30 -33 26 -4 -1 -13 12 -18 29 -10 26 -16 30 -48 30 -34 0
-37 2 -35 28 2 38 -5 52 -27 52 -10 0 -20 -1 -20 -2z"/>
<path d="M3107 3893 c-3 -4 -8 -33 -11 -63 -4 -30 -9 -72 -12 -92 -4 -30 -1
-39 16 -48 11 -6 20 -7 20 -3 0 4 5 2 11 -4 8 -8 -2 -47 -36 -139 -26 -71 -66
-183 -90 -249 -24 -66 -76 -205 -115 -310 -39 -104 -72 -194 -74 -200 -2 -5
-6 -17 -9 -25 -36 -95 -107 -303 -105 -306 2 -1 66 -4 143 -6 116 -2 140 -6
140 -18 0 -10 -8 -14 -26 -12 -24 3 -27 -1 -34 -35 -4 -21 -8 -63 -9 -93 l-1
-55 90 -12 c50 -7 115 -14 145 -18 30 -3 73 -7 95 -10 71 -8 299 -36 325 -40
14 -2 54 -7 90 -10 36 -3 76 -8 90 -10 14 -2 53 -7 88 -10 55 -6 62 -5 63 12
0 10 2 27 4 38 2 11 6 45 7 74 3 51 1 55 -22 61 -24 6 -25 10 -23 65 2 34 8
62 15 67 7 4 35 8 61 8 57 0 58 -20 -15 180 -98 267 -173 489 -167 495 4 3 16
7 28 10 32 6 41 14 41 36 0 10 3 19 8 20 4 0 17 2 29 3 29 3 31 5 36 41 3 25
9 30 31 31 39 2 38 -1 51 124 3 36 8 87 11 115 5 52 20 79 39 71 31 -12 40 14
51 142 4 46 2 63 -8 67 -12 4 -38 7 -163 20 -27 2 -68 7 -90 10 -22 2 -62 7
-90 10 -27 3 -63 8 -80 10 -16 2 -51 7 -77 10 -27 3 -69 7 -95 10 -27 3 -68 8
-93 11 -25 2 -58 7 -75 9 -16 2 -61 7 -100 10 -38 3 -77 8 -87 11 -9 3 -18 1
-21 -3z m258 -87 c92 -9 160 -16 190 -20 17 -3 50 -7 75 -10 54 -7 135 -17
170 -21 14 -2 47 -6 74 -9 73 -8 84 -14 84 -41 0 -27 -20 -37 -58 -30 -32 6
-81 13 -160 21 -36 4 -74 8 -85 9 -11 2 -47 6 -80 10 -33 4 -69 9 -80 11 -19
4 -55 8 -160 19 -103 10 -122 15 -120 33 3 41 5 42 150 28z m-10 -151 c39 -3
88 -8 109 -11 21 -2 62 -6 90 -9 28 -3 67 -7 86 -10 19 -2 80 -9 135 -16 55
-6 109 -13 120 -15 11 -1 26 -3 34 -3 10 -1 12 -17 7 -78 -4 -43 -9 -91 -12
-108 -3 -16 -6 -38 -7 -47 -1 -19 -8 -21 -44 -18 -17 1 -22 -5 -25 -27 -2 -23
-8 -29 -35 -31 -28 -3 -32 -7 -38 -41 -6 -36 -8 -38 -43 -37 -30 1 -39 -4 -47
-22 -6 -14 -22 -26 -38 -29 -18 -4 -29 -14 -33 -29 -6 -25 -18 -32 -51 -29
-18 1 -23 -4 -24 -24 0 -14 -2 -39 -4 -56 -14 -127 -15 -123 16 -130 20 -5 29
-13 31 -32 2 -21 18 -38 46 -49 1 -1 5 -12 7 -24 6 -29 7 -30 41 -36 35 -6 35
-6 37 -40 2 -21 9 -30 27 -34 19 -4 26 -13 28 -37 3 -26 8 -32 30 -35 30 -3
30 -5 17 -113 -4 -33 -9 -80 -11 -104 -2 -24 -5 -46 -7 -47 -8 -8 -52 -10 -85
-5 -31 5 -38 11 -42 36 -8 49 -80 56 -80 8 0 -21 -4 -24 -32 -21 -26 2 -33 8
-33 25 -1 48 -54 59 -65 13 -4 -16 -13 -25 -25 -26 -51 -1 -53 51 -3 64 16 4
29 11 29 15 -1 4 -1 16 -1 27 0 32 -46 27 -54 -5 -12 -48 -66 -40 -66 10 0 29
-40 42 -57 19 -16 -22 -7 -41 27 -53 20 -6 27 -15 25 -28 -2 -10 -4 -21 -4
-24 -1 -10 -37 -17 -49 -10 -6 3 -12 19 -14 36 -3 26 -8 31 -40 36 -36 5 -37
4 -40 -25 -3 -29 -5 -31 -38 -28 -19 1 -44 4 -55 7 -11 2 -25 4 -31 4 -7 1 -8
19 -3 56 7 56 21 180 22 203 0 7 14 12 31 12 26 0 34 6 43 30 10 26 16 30 38
26 22 -4 27 -1 32 24 5 26 10 29 47 32 22 2 39 5 37 8 -2 3 1 16 8 28 9 18 19
23 36 19 19 -3 26 2 34 23 6 19 18 29 40 33 25 5 31 11 32 34 0 16 2 36 4 45
2 9 5 42 8 72 6 54 5 55 -21 58 -15 2 -28 9 -28 16 -1 6 -2 19 -3 28 0 8 -15
20 -31 26 -25 8 -29 14 -26 35 5 25 2 27 -46 37 -25 6 -28 11 -28 45 0 34 -4
40 -30 50 -17 5 -30 14 -29 18 5 28 -4 43 -27 49 -28 7 -28 -1 -8 192 6 59 8
62 52 58 20 -2 69 -7 107 -11z m-17 -534 c11 -6 12 -25 7 -77 -3 -38 -10 -73
-14 -77 -14 -14 -76 -4 -76 13 1 36 49 150 63 150 4 0 13 -4 20 -9z m-94 -797
c21 -4 88 -12 161 -19 38 -3 188 -21 250 -30 17 -3 49 -7 73 -9 54 -6 63 -12
58 -39 -3 -20 -9 -22 -57 -21 -30 0 -83 4 -119 8 -36 4 -83 10 -105 12 -22 2
-56 6 -75 9 -19 3 -57 7 -85 10 -27 4 -68 9 -90 12 -22 3 -53 7 -70 8 -46 4
-140 17 -143 20 -2 1 0 15 4 30 l7 27 85 -7 c47 -4 95 -9 106 -11z"/>
<path d="M3392 3386 c-5 -6 -7 -17 -6 -23 1 -7 2 -17 3 -23 2 -21 42 -9 51 16
13 33 14 31 -15 36 -14 3 -29 0 -33 -6z"/>
<path d="M3523 3373 c-25 -10 -14 -44 18 -55 28 -10 30 -13 25 -50 -4 -30 -2
-40 11 -45 23 -9 47 10 53 43 4 21 11 29 27 29 42 1 58 50 20 64 -27 11 -37 6
-37 -19 0 -29 -35 -44 -55 -24 -9 9 -14 23 -11 30 4 11 -23 36 -36 33 -2 0 -9
-3 -15 -6z"/>
<path d="M3452 3321 c-5 -3 -11 -21 -14 -39 -4 -27 -1 -33 18 -38 32 -8 44 2
44 40 0 34 -24 52 -48 37z"/>
<path d="M3506 3224 c-24 -23 -16 -48 17 -52 23 -3 27 0 27 21 0 36 -23 52
-44 31z"/>
<path d="M3433 2694 c-10 -27 2 -49 30 -52 24 -3 27 0 27 26 0 24 -5 31 -26
35 -16 3 -28 0 -31 -9z"/>
<path d="M3373 2579 c-18 -6 -23 -16 -23 -44 0 -34 2 -36 27 -33 22 2 29 10
34 35 8 39 -6 54 -38 42z"/>
<path d="M3485 2560 c-21 -34 -8 -79 23 -74 6 1 16 2 21 3 4 0 8 18 7 39 -1
30 -5 38 -23 40 -11 2 -24 -2 -28 -8z"/>
<path d="M3540 2466 c-23 -23 -5 -56 31 -56 12 0 28 41 22 57 -5 14 -39 13
-53 -1z"/>
<path d="M4708 3715 c-2 -2 -39 -4 -83 -6 -149 -6 -309 -76 -398 -174 -67 -74
-134 -209 -144 -290 -7 -60 -7 -306 0 -340 4 -16 9 -43 13 -60 7 -35 54 -133
85 -178 41 -60 134 -138 204 -172 117 -55 138 -59 305 -59 136 0 164 2 225 23
166 55 287 154 349 285 39 83 53 140 37 151 -14 8 -151 31 -246 40 -39 4 -73
9 -77 12 -4 2 -19 -22 -33 -54 -31 -68 -98 -135 -154 -151 -52 -16 -134 -15
-175 2 -47 19 -104 73 -127 118 -56 110 -58 314 -4 418 59 114 201 164 319
111 62 -27 100 -67 131 -137 l25 -56 67 7 c38 3 104 13 147 20 44 8 83 12 86
10 4 -2 16 2 28 10 l21 15 -34 86 c-41 103 -71 149 -141 213 -91 84 -211 136
-334 147 -30 3 -63 6 -72 8 -9 2 -18 2 -20 1z"/>
<path d="M1359 3676 c-4 -61 0 -1208 4 -1213 5 -4 154 -6 308 -4 l46 1 -1 226
c-1 124 2 228 6 230 3 2 17 4 30 4 12 0 41 0 63 1 22 1 47 1 55 0 35 -2 97 -1
116 3 11 2 26 1 33 -3 6 -4 32 -5 56 -1 24 4 50 3 56 -1 10 -6 13 -65 13 -227
1 -121 5 -224 9 -228 8 -9 335 -9 344 -1 4 4 6 896 3 1193 l0 32 -177 -2 -178
-1 -1 -220 c-1 -121 -2 -225 -3 -230 -1 -7 -71 -10 -208 -9 -115 1 -210 2
-213 3 -3 0 -5 103 -5 228 l0 228 -177 1 c-128 2 -178 -1 -179 -10z"/>
</g>
</svg>
