<?xml version="1.0" encoding="UTF-8" standalone="no"?>
<!-- Created with Inkscape (http://www.inkscape.org/) -->

<svg
   xmlns:dc="http://purl.org/dc/elements/1.1/"
   xmlns:cc="http://creativecommons.org/ns#"
   xmlns:rdf="http://www.w3.org/1999/02/22-rdf-syntax-ns#"
   xmlns:svg="http://www.w3.org/2000/svg"
   xmlns="http://www.w3.org/2000/svg"
   xmlns:xlink="http://www.w3.org/1999/xlink"
   xmlns:sodipodi="http://sodipodi.sourceforge.net/DTD/sodipodi-0.dtd"
   xmlns:inkscape="http://www.inkscape.org/namespaces/inkscape"
   width="1189mm"
   height="841mm"
   viewBox="0 0 1189 841"
   version="1.1"
   id="svg8"
   inkscape:version="0.92.3 (2405546, 2018-03-11)"
   sodipodi:docname="Poster_Logo_old_color.svg">
  <defs
     id="defs2">
    <linearGradient
       inkscape:collect="always"
       id="linearGradient4650-9">
      <stop
         style="stop-color:#ffff00;stop-opacity:1"
         offset="0"
         id="stop4646" />
      <stop
         style="stop-color:#00ffff;stop-opacity:1"
         offset="1"
         id="stop4648" />
    </linearGradient>
    <clipPath
       id="clipPath998"
       clipPathUnits="userSpaceOnUse">
      <path
         inkscape:connector-curvature="0"
         id="path996"
         d="M 0.06,63 H 45.787 V 0 H 0.06 Z" />
    </clipPath>
    <clipPath
       id="clipPath1004"
       clipPathUnits="userSpaceOnUse">
      <path
         inkscape:connector-curvature="0"
         id="path1002"
         d="M 0,0 H 46 V 63 H 0 Z" />
    </clipPath>
    <clipPath
       id="clipPath1020"
       clipPathUnits="userSpaceOnUse">
      <path
         inkscape:connector-curvature="0"
         id="path1018"
         d="M 0,0 H 46 V 63 H 0 Z" />
    </clipPath>
    <linearGradient
       inkscape:collect="always"
       xlink:href="#linearGradient4650-9"
       id="linearGradient4652"
       x1="488.21277"
       y1="-4.4224687"
       x2="536.4458"
       y2="3.2607522"
       gradientUnits="userSpaceOnUse" />
  </defs>
  <sodipodi:namedview
     id="base"
     pagecolor="#ffffff"
     bordercolor="#666666"
     borderopacity="1.0"
     inkscape:pageopacity="0.0"
     inkscape:pageshadow="2"
     inkscape:zoom="0.12374369"
     inkscape:cx="1975.1199"
     inkscape:cy="1721.3937"
     inkscape:document-units="mm"
     inkscape:current-layer="layer1"
     showgrid="false"
     inkscape:window-width="1704"
     inkscape:window-height="1372"
     inkscape:window-x="1720"
     inkscape:window-y="0"
     inkscape:window-maximized="0"
     inkscape:snap-global="true" />
  <metadata
     id="metadata5">
    <rdf:RDF>
      <cc:Work
         rdf:about="">
        <dc:format>image/svg+xml</dc:format>
        <dc:type
           rdf:resource="http://purl.org/dc/dcmitype/StillImage" />
        <dc:title></dc:title>
      </cc:Work>
    </rdf:RDF>
  </metadata>
  <g
     inkscape:label="Ebene 1"
     inkscape:groupmode="layer"
     id="layer1"
     transform="translate(0,544)">
    <path
       style="fill:#13fff2;stroke:#000000;stroke-width:0.26458332px;stroke-linecap:butt;stroke-linejoin:miter;stroke-opacity:1;fill-opacity:1"
       d="m 871.0066,-134.22805 181.0647,-21.92703 3.4675,-8.43767 8.0862,-3.31795 -31.372,-251.73215 -114.2247,11.73465 v 0 l -2.19199,13.58976 -6.16723,-0.58227 -2.52622,7.00786 12.38149,106.40586 -10.11364,3.9632 3.27221,10.50264 -56.64025,7.01 0.45138,13.10341 -9.44941,1.51191 9.07142,97.89583 z"
       id="path3839"
       inkscape:connector-curvature="0"
       sodipodi:nodetypes="cccccccccccccccccc" />
    <path
       style="fill:#000000;fill-opacity:1;stroke-width:1.50790691"
       d="m 496.40654,141.00057 c -43.54085,-5.27174 -79.76175,-9.6128 -80.49092,-9.647 -1.25844,-0.057 -0.31573,-16.09447 1.58448,-26.95938 0.83744,-4.787313 1.12781,-4.986783 5.96544,-4.08061 4.42837,0.83208 5.08514,0.56992 5.08514,-2.131493 0,-2.98067 -0.82153,-3.08326 -24.88046,-3.08326 -13.68426,0 -24.88047,-0.34195 -24.88047,-0.75799 0,-0.39894 16.96396,-46.923598 37.69767,-103.3477236 C 437.22115,-65.431013 454.1851,-112.24975 454.1851,-113.0482 c 0,-0.79789 -2.37496,-1.45329 -5.27766,-1.45329 -6.10084,0 -5.90556,1.21962 -3.26648,-20.35689 l 1.84459,-15.07888 5.98864,0.51293 c 3.29372,0.28495 40.1805,4.51374 81.97056,9.42415 41.79001,4.91269 76.78809,8.93232 77.77347,8.93232 1.37464,0 1.34273,3.59618 -0.13678,15.45617 -1.06118,8.50089 -1.96165,16.507093 -2.00098,17.792258 -0.0543,1.761045 -1.3376,2.188483 -5.20107,1.738249 -6.32158,-0.735194 -5.97416,-1.806639 -9.35274,28.723279 l -2.62846,23.749608 h -5.76996 c -5.36977,0 -5.76996,0.284959 -5.76996,4.399764 0,7.763988 -1.30569,9.345509 -6.85395,8.30484 -4.7856,-0.90047 -5.01641,-0.723796 -5.47976,4.109106 -0.44453,4.644829 -0.93808,5.083665 -6.13824,5.516803 -4.9446,0.398942 -5.65472,0.951762 -5.65472,4.342772 0,2.131492 8.8213,27.786904 19.60283,57.015701 10.78153,29.228797 19.60277,53.569977 19.60277,54.090887 0,0.51292 -4.39748,0.94606 -9.77266,0.94606 -10.91073,0 -10.17833,-0.85488 -12.13372,14.159603 -1.0458,8.03128 0.19947,9.90232 6.61817,9.94393 3.18413,0.0205 3.47023,0.51292 2.70483,4.92408 -0.47303,2.69571 -1.31252,9.82026 -1.87047,15.83346 -0.91757,9.88465 -1.32107,10.91734 -4.21283,10.77771 -1.75877,-0.057 -38.82228,-4.46816 -82.36307,-9.73932 z"
       id="path85" />
    <path
       style="fill:#000000;fill-opacity:1;stroke-width:1.50790691"
       d="m 562.75441,131.95655 c 0,-2.85529 -0.62805,-5.18626 -1.39516,-5.18626 -0.76711,0 -26.90518,-3.05475 -58.08424,-6.786 -31.17901,-3.73297 -58.62655,-6.78544 -60.99452,-6.78544 -3.62582,0 -4.45585,0.75229 -5.25835,4.76451 -0.52432,2.62162 -0.77001,4.94688 -0.54655,5.16915 0.80894,0.80928 124.04639,15.20084 125.14776,14.61497 0.62178,-0.34195 1.13072,-2.93508 1.13072,-5.79036 z"
       id="path83" />
    <path
       style="fill:url(#linearGradient4652);fill-opacity:1;stroke-width:1.50790691"
       d="m 564.91098,112.81985 c 0.38754,-1.86933 1.46013,-10.51783 2.38225,-19.226173 0.92213,-8.70777 2.02834,-17.69879 2.45863,-19.9796 0.73519,-3.89824 0.45593,-4.149 -4.61519,-4.149 -5.29169,0 -5.39769,-0.11399 -5.39769,-6.03144 0,-5.69918 -0.25077,-6.03201 -4.52344,-6.03201 -4.27267,0 -4.52401,-0.34195 -4.52401,-6.03144 0,-5.794922 -0.19377,-6.032577 -4.90072,-6.054804 -6.83126,-0.03191 -9.02846,-1.835135 -8.42823,-6.912531 0.44454,-3.784253 -0.0565,-4.42826 -4.01222,-5.112161 -3.9689,-0.683901 -4.58099,-1.476087 -4.99191,-6.430951 -0.42173,-5.055169 -0.9073,-5.647884 -4.64938,-5.647884 -2.29962,0 -4.5166,-0.34195 -4.92694,-0.746592 -0.41034,-0.398942 0.12538,-7.704716 1.18486,-16.2101666 1.06175,-8.505451 1.96279,-16.3879824 2.00212,-17.5169894 0.0532,-1.515981 1.42764,-1.79524 5.27117,-1.077144 5.00957,0.940364 5.23583,0.780787 6.19945,-4.354171 0.9056,-4.827202 1.47152,-5.32873 5.99023,-5.32873 4.34334,0 5.12185,-0.598413 6.0067,-4.627731 0.97627,-4.445358 1.296,-4.610634 8.0363,-4.188895 l 7.01967,0.455934 0.75401,-6.742125 0.754,-6.742126 5.65472,0.512926 c 5.59374,0.512926 5.65472,0.455934 5.65472,-5.020974 0,-5.454112 0.0627,-5.511104 5.65472,-5.020975 l 5.65473,0.512926 2.62447,-20.999185 c 1.4436,-11.549951 2.36174,-21.261918 2.04087,-21.583351 -1.62597,-1.624266 -123.88507,-15.005357 -124.73013,-13.650097 -0.51692,0.83208 -1.8149,10.08868 -2.88424,20.576876 -1.06934,10.487624 -2.00343,19.364661 -2.07581,19.726559 -0.0724,0.34195 2.0737,1.231022 4.76913,1.926321 4.34397,1.122738 4.90072,1.863631 4.90072,6.504471 0,4.154699 0.59659,5.237543 2.8925,5.237543 5.89399,0 7.00408,1.345006 6.39335,7.74974 -0.67598,7.088636 0.96384,8.779011 8.55,8.814346 4.87861,0.02223 5.00479,0.170975 4.52372,5.67638 -0.47303,5.380022 -0.26216,5.676379 4.31998,6.120915 4.36044,0.398942 4.85854,0.991657 5.27743,6.031438 0.41604,4.975381 0.94778,5.613689 5.0546,6.014911 l 4.5924,0.455934 -1.89669,15.3832174 c -1.04294,8.460998 -1.92233,16.1907906 -1.9531,17.1778876 -0.0312,0.985957 -2.60111,2.00611 -5.71132,2.262573 -5.1475,0.398942 -5.6969,0.90047 -6.12297,5.311632 -0.43883,4.530846 -0.76825,4.787308 -5.05334,3.926733 -5.08526,-1.020153 -7.23397,0.980258 -7.27245,6.759223 -0.0213,3.191539 -0.59118,3.430904 -7.18565,3.014864 -7.11586,-0.455934 -7.16569,-0.398942 -7.64299,4.553642 -0.45879,4.781609 -0.73178,4.98678 -6.03163,4.525146 -5.27761,-0.455934 -5.57448,-0.227967 -6.02371,4.416865 -0.44112,4.57074 -0.85066,4.90129 -6.12013,4.90129 h -5.6476 l -2.61324,22.80696 c -1.43728,12.54389 -2.41531,23.004163 -2.17338,23.245233 0.24221,0.22797 5.35945,0.92327 11.37221,1.51598 l 10.93232,1.07715 v -5.636493 c 0,-4.51944 0.47246,-5.45411 2.38522,-4.71891 1.31184,0.51292 4.36534,0.91756 6.78558,0.91756 4.12849,0 4.4004,0.39895 4.4004,6.031443 0,5.88839 0.12538,6.03201 5.27766,6.03201 3.2059,0 5.28576,-0.74089 5.29824,-1.88643 0.0121,-1.03725 0.41832,-3.36821 0.90457,-5.18055 0.7597,-2.832493 0.12083,-3.436603 -4.54429,-4.314283 -4.71362,-0.88337 -5.4283,-1.57867 -5.4283,-5.28313 0,-5.14066 1.01582,-5.91689 6.4172,-4.8842 3.50933,0.67251 4.13817,1.53878 4.13817,5.73167 0,4.99817 1.96063,6.77119 7.49506,6.77119 1.92918,0 3.01886,-1.56728 3.73183,-5.36863 0.89021,-4.74171 1.48064,-5.31733 5.06827,-4.90129 3.34143,0.39894 4.14387,1.32221 4.52629,5.27174 0.44453,4.57074 0.18807,4.8272 -5.27744,5.27744 -5.22272,0.45593 -5.78489,0.90617 -6.2052,5.237543 -0.41604,4.26868 0.0367,4.8728 4.33536,5.81601 5.29966,1.16263 7.37382,-0.63261 7.41326,-6.43095 0.0158,-2.33096 0.92783,-3.391013 2.9157,-3.391013 5.97872,0 7.4723,1.515983 6.62768,6.718193 -0.77622,4.78161 -0.59556,4.99818 4.68359,5.61939 6.54208,0.76369 6.90683,0.51292 6.90683,-5.13496 0,-4.1946 0.23936,-4.34277 6.40861,-3.89254 6.20059,0.45593 6.42365,0.64401 6.87133,6.02916 0.50152,6.01263 1.35469,6.3939 15.71855,7.00999 4.71607,0.22796 5.7401,-0.28496 6.33184,-3.15165 z"
       id="path81" />
    <path
       style="fill:#000000;fill-opacity:1;stroke-width:1.50790691"
       d="m 520.00694,99.993847 c -0.38755,-0.62691 -0.34765,-3.00346 0.0855,-5.27743 0.68333,-3.57339 1.51142,-4.13761 6.06882,-4.13761 4.73716,0 5.18454,0.34196 4.36842,3.39101 -0.50153,1.86364 -0.91871,4.24019 -0.92954,5.27744 -0.0222,2.023213 -8.40155,2.672923 -9.59427,0.74659 z"
       id="path79" />
    <path
       style="fill:#000000;fill-opacity:1;stroke-width:1.50790691"
       d="m 510.78841,87.653427 c -0.47873,-0.78079 -0.43884,-4.1376 0.0912,-7.46535 0.93125,-5.82513 1.14212,-6.01605 5.68721,-5.15206 2.59598,0.51293 4.78047,0.96886 4.85456,1.06005 0.0741,0.11398 -0.16528,3.04336 -0.53572,6.56887 -0.61437,5.87528 -1.02585,6.40872 -4.94632,6.40872 -2.35205,0 -4.67047,-0.63831 -5.15148,-1.41909 z"
       id="path77" />
    <path
       style="fill:#000000;fill-opacity:1;stroke-width:1.50790691"
       d="m 488.86717,81.653897 c 0,-7.1935 1.41881,-9.17054 6.58082,-9.17054 4.70467,0 4.74514,0.057 4.21055,6.78544 -0.52432,6.60534 -0.67592,6.78544 -5.66555,6.78544 -4.65816,0 -5.12584,-0.39894 -5.12584,-4.39977 z"
       id="path75" />
    <path
       style="fill:#000000;fill-opacity:1;stroke-width:1.50790691"
       d="m 505.83115,62.371307 c -2.57888,-0.51292 -3.39272,-1.69265 -3.39272,-4.98108 0,-5.20905 1.00362,-5.98185 6.41722,-4.94688 3.54089,0.6782 4.13817,1.52738 4.13817,5.89294 0,5.17486 -0.32486,5.35723 -7.16267,4.03502 z"
       id="path73" />
    <path
       style="fill:#000000;fill-opacity:1;stroke-width:1.50790691"
       d="m 517.80649,-26.763811 c -4.61691,-0.455934 -4.9543,-0.837779 -4.52401,-5.277437 0.33625,-3.470798 1.2977,-4.906991 3.48049,-5.186251 4.69726,-0.598413 7.05746,1.778144 6.52043,6.57514 -0.44454,3.955229 -0.95918,4.319976 -5.47748,3.886839 z"
       id="path71" />
    <path
       style="fill:#000000;fill-opacity:1;stroke-width:1.50790691"
       d="m 525.51189,-43.474365 0.87482,-7.388413 -5.18853,-0.974559 c -4.52287,-0.849177 -5.18853,-1.544477 -5.18853,-5.431315 0,-4.069212 0.44454,-4.456756 5.18682,-4.456756 4.90471,0 5.2119,0.284959 5.65472,5.653583 0.42174,5.112161 0.92042,5.699176 5.18568,6.113507 4.35475,0.398942 4.797,0.03477 5.75127,-5.049471 0.89021,-4.747414 1.49091,-5.385721 4.32967,-4.627731 1.8129,0.512926 3.80534,0.894771 4.42712,0.906169 0.62178,0.01197 1.13071,2.302467 1.13071,5.095064 0,4.889893 -0.20517,5.066568 -5.65472,4.901292 -5.60571,-0.170976 -5.65871,-0.113984 -6.11835,6.236608 -0.45024,6.260545 -0.58873,6.408724 -5.86468,6.408724 h -5.40111 z"
       id="path69" />
    <path
       style="fill:#000000;fill-opacity:1;stroke-width:1.50790691"
       d="m 508.01154,-38.835236 c -3.9672,-0.455934 -4.19972,-0.871974 -3.77,-6.785439 0.42743,-5.894658 0.77394,-6.331215 5.35893,-6.773471 4.75824,-0.455935 4.90015,-0.284959 4.87736,5.277437 -0.0293,7.33484 -1.23673,8.880456 -6.46692,8.280903 z"
       id="path67" />
    <path
       style="fill:#000000;fill-opacity:1;stroke-width:1.50790691"
       d="m 494.89882,-59.365379 c 0,-5.152056 0.21657,-5.374324 5.37318,-5.374324 5.15377,0 5.35381,0.227967 4.90072,4.901292 -0.41604,4.308578 -1.06403,4.958284 -5.37318,5.374324 -4.70068,0.455934 -4.90072,0.227967 -4.90072,-4.901292 z"
       id="path65" />
    <path
       style="fill:#000000;fill-opacity:1;stroke-width:1.50790691"
       d="m 488.21276,-4.4224686 c 0.88406,-7.0493124 1.35299,-13.3263844 1.04192,-13.9481654 -0.31117,-0.62121 -2.42123,-1.128436 -4.68939,-1.128436 -3.83503,0 -4.40974,0.877673 -8.2045,12.5296394 -2.24433,6.891444 -4.08055,13.375397 -4.08055,14.408088 0,1.299412 2.20632,1.738248 7.16255,1.419095 l 7.16256,-0.455935 z"
       id="path63" />
    <path
       style="fill:#000000;fill-opacity:1;stroke-width:1.50790691"
       d="m 591.98919,-116.29046 c 0.53002,-2.64442 0.44454,-5.30594 -0.18807,-5.91347 -1.61002,-1.55017 -120.60293,-15.40031 -123.32737,-14.35508 -2.25385,0.86627 -3.23599,9.91827 -1.09384,10.08298 0.62201,0.0479 27.93398,3.35681 60.69324,7.35878 32.75933,4.00082 60.32573,7.35307 61.25874,7.45224 0.93296,0.11398 2.12921,-1.98331 2.65753,-4.62773 z"
       id="path61" />
    <path
       style="fill:#000000;fill-opacity:1;stroke-width:1.50790691"
       d="m 686.403,95.776457 c -5.39085,-1.15693 -15.9679,-5.14635 -23.50471,-8.8719 -23.57573,-11.6514 -40.39702,-32.93782 -48.33877,-61.168694 -3.90393,-13.878065 -3.9917,-58.168644 -0.14248,-72.37954 9.36797,-34.594002 33.77241,-59.138643 68.21744,-68.608963 13.9428,-3.83555 44.26504,-4.67903 59.67299,-1.66416 28.66937,5.60799 54.66405,23.92856 66.57795,46.921317 5.16403,9.96672 11.45404,28.672556 10.08578,29.995905 -1.17859,1.139835 -55.73322,8.732278 -57.59856,8.016462 -1.02528,-0.398943 -2.66151,-3.698766 -3.63607,-7.341679 -4.51204,-16.869562 -21.24795,-29.182063 -39.66632,-29.182063 -18.11387,0 -32.67777,10.351414 -39.3796,27.989225 -4.57131,12.030961 -6.16862,27.3361 -4.28692,41.0808034 2.96015,21.6209656 10.57636,35.0259986 24.15504,42.5152856 7.19054,3.966627 9.68957,4.525146 20.26525,4.525146 10.56462,0 13.07095,-0.569917 20.17468,-4.490951 9.26042,-5.129258 17.48285,-14.976295 20.04634,-24.00721 0.96544,-3.402409 2.23009,-6.738137 2.81027,-7.416908 0.58074,-0.678202 14.03741,0.649706 29.90398,2.952173 32.81124,4.758812 30.96026,3.385311 25.70664,19.066595 -7.97029,23.790076 -24.0112,41.892936 -46.90901,52.939076 -7.9695,3.84695 -19.05873,7.78793 -25.6582,9.12381 -14.36751,2.90658 -44.94581,2.91798 -58.49498,0.0131 z"
       id="path59" />
    <path
       style="fill:#000000;fill-opacity:1;stroke-width:1.50790691"
       d="M 152.60367,-10.453908 V -114.49978 h 30.15814 30.15814 v 39.205773 39.205774 h 36.18977 36.18977 v -39.205774 -39.205773 h 30.15814 30.15815 V -10.453908 93.591397 h -30.15812 -30.15815 v -39.2052 -39.205779 h -36.18977 -36.18977 v 39.205779 39.2052 h -30.15814 -30.15814 z"
       id="path57" />
    <path
       style="fill:#000000;fill-opacity:1;stroke-width:1.50790691"
       d="M 864.33579,-10.453908 V -114.49978 h 9.80144 c 8.65682,0 9.80139,-0.34195 9.80139,-2.88948 0,-5.70887 -1.72799,-7.66312 -6.77575,-7.66312 -4.34163,0 -5.02611,-0.56991 -5.60913,-4.52514 -0.36475,-2.49054 -0.61209,-4.58214 -0.54712,-4.65053 0.0627,-0.057 40.8293,-5.03237 90.59023,-11.02677 l 90.47445,-10.90024 -0.171,-5.5624 c -0.1596,-5.16915 0.1368,-5.56239 4.194,-5.56239 2.4011,0 4.7218,-0.92897 5.1566,-2.0574 0.4332,-1.13414 -5.698,-56.60536 -13.6282,-123.27148 -7.9303,-66.66669 -14.4143,-122.44225 -14.409,-123.94626 0.01,-2.17708 1.0122,-2.63872 4.9104,-2.26257 4.3206,0.39894 4.9572,1.06005 5.3772,5.41992 0.4559,4.76451 0.6714,4.91269 5.6547,3.97802 2.8479,-0.51293 5.2302,-0.72379 5.2929,-0.39894 0.063,0.28496 1.2504,9.02692 2.6387,19.39373 l 2.5241,18.84888 6.2377,0.45594 6.2376,0.45593 0.8156,62.1233 c 0.5699,43.2123 1.5051,66.94196 3.0798,77.95562 1.2453,8.70834 2.3122,16.00271 2.3709,16.21016 0.057,0.22797 21.1422,0.39895 46.852,0.39895 h 46.7451 v 25.63432 25.6349 h -43.729 c -28.1476,0 -43.7293,0.51292 -43.7293,1.51028 0,0.83208 -2.4278,1.51028 -5.3954,1.51028 -5.3179,0 -5.3886,0.057 -4.9007,5.65358 0.473,5.43702 0.2963,5.67638 -4.5873,6.14086 l -5.0819,0.51293 0.7141,7.43002 c 0.5186,5.37432 0.1823,7.43058 -1.2008,7.43058 -2.8719,0 -141.29112,16.52362 -143.90926,17.17903 -1.24413,0.28496 -0.74716,0.64401 1.10393,0.74089 l 3.36593,0.17098 0.40465,36.429703 0.40464,36.429136 30.11809,-36.429136 30.1181,-36.429703 h 36.84052 c 34.9471,0 36.7236,0.11398 34.5667,2.63872 -1.2504,1.45329 -17.0442,19.602884 -35.0971,40.336487 -18.0529,20.734174 -33.13693,38.502496 -33.52009,39.486174 -0.38184,0.985958 15.98399,29.3809644 36.37139,63.105841 20.3874,33.724875 37.068,61.601255 37.068,61.948335 0,0.34195 -16.0515,0.45594 -35.67,0.22797 l -35.66987,-0.39894 -21.98252,-38.07449 C 956.4628,33.901642 946.14057,16.768208 945.61488,16.768208 c -0.52433,0 -5.45639,5.214747 -10.9573,11.582437 l -10.00154,11.582436 v 26.868766 26.86934 h -30.15873 -30.15816 z"
       id="path55" />
    <path
       style="fill:#000000;fill-opacity:1;stroke-width:1.50790691"
       d="m 859.81235,-136.995 c 0,-6.15796 -1.60716,-7.78109 -6.75101,-6.81565 -4.10398,0.76939 -5.02611,0.39895 -5.71554,-2.22837 -0.81555,-3.11745 -1.28744,-3.14595 -59.77176,-3.14595 h -58.94955 v -103.29187 -103.2913 h 82.93487 82.93493 v 25.61495 25.61494 l -53.15377,0.39895 -53.15371,0.39894 v 12.06345 12.06287 l 49.60997,0.39894 c 40.93541,0.34196 49.90005,0.77509 51.26888,2.55893 1.30511,1.69836 3.66286,1.91493 11.0544,1.01446 5.16745,-0.63261 9.85451,-1.60717 10.4153,-2.16569 0.55852,-0.56992 -2.00098,-26.4721 -5.69233,-57.58049 l -6.71198,-56.5609 h 4.93834 c 3.90393,0 5.08879,0.71239 5.65472,3.39101 0.6554,3.10035 12.94226,106.18306 12.92134,108.40175 -0.005,0.51293 -2.45121,1.4191 -5.43644,1.98331 -5.21247,0.98026 -5.38971,1.21963 -4.4767,6.08501 l 0.95062,5.06657 -7.96335,0.98026 c -4.37981,0.51293 -17.12397,2.12009 -28.32017,3.50499 l -20.35672,2.52474 0.45023,7.16272 c 0.39325,6.27195 0.0855,7.16273 -2.51561,7.16273 -5.919,0 -7.53796,1.53308 -6.88147,6.52613 0.34765,2.63302 2.6769,22.76479 5.17998,44.74252 6.18269,54.28579 5.16345,49.76122 11.20868,49.76122 4.149,0 5.21703,0.6839 6.00944,3.84124 1.28916,5.13496 0.0535,6.71591 -5.24951,6.71591 -3.3665,0 -4.43453,-0.6953 -4.43453,-2.88948 z"
       id="path53" />
    <path
       style="fill:#ffffff;fill-opacity:1;stroke-width:1.50790691"
       d="m 839.60655,-212.87896 c -0.56992,-6.83673 -1.56784,-12.96164 -2.21698,-13.61077 -0.64914,-0.64971 -11.9852,-0.99166 -25.19156,-0.76369 l -24.01148,0.39894 -0.45024,11.1681 c -0.24506,6.14258 -0.0969,12.07998 0.33056,13.19417 0.60924,1.59007 6.38609,2.0289 26.67602,2.0289 h 25.89854 z"
       id="path51" />
    <path
       style="fill:#000000;fill-opacity:1;stroke-width:1.50790691"
       d="m 562.00075,-146.27155 c -14.07007,-1.90922 -32.19339,-6.66575 -43.53464,-11.42514 -12.05108,-5.05517 -29.59886,-15.31425 -29.59886,-17.30042 0,-1.69835 28.12158,-45.0537 29.22186,-45.0537 0.37045,0 4.28293,2.37656 8.69466,5.28314 25.43041,16.74817 67.3959,23.99353 85.3132,14.72952 9.58863,-4.95828 8.1782,-13.686 -3.15906,-19.54874 -2.38624,-1.23102 -17.43024,-5.19195 -33.43125,-8.79041 -34.43477,-7.74917 -47.95333,-13.34975 -60.21397,-24.9453 -4.72347,-4.46815 -10.09364,-11.50948 -12.445,-16.32016 -3.74607,-7.66368 -4.13589,-10.02656 -4.13589,-25.04902 0,-15.14556 0.37044,-17.34658 4.26868,-25.32885 14.32402,-29.33594 53.42972,-44.81889 102.0054,-40.38607 9.68729,0.88337 24.09805,3.25423 32.02384,5.26034 14.93623,3.78995 41.85395,15.2926 41.85395,17.88686 0,0.81498 -2.62048,6.31412 -5.82353,12.22189 -3.20294,5.90719 -8.6412,15.93147 -12.08505,22.27523 l -6.26151,11.53456 -10.25316,-5.04947 c -29.24926,-14.4098 -68.36749,-18.67677 -80.17054,-8.74482 -10.3044,8.67016 -3.19268,16.69517 19.20035,21.66428 40.7539,9.0446 53.13787,12.504 64.59806,18.04588 13.00273,6.28733 23.19519,15.16436 27.81887,24.22719 7.28241,14.27473 6.93733,38.46204 -0.7899,55.36636 -7.62231,16.67408 -26.52876,30.49573 -50.30173,36.77166 -13.44966,3.55058 -46.095,4.94118 -62.79461,2.67291 z"
       id="path49" />
    <path
       style="fill:#000000;fill-opacity:1;stroke-width:1.50790691"
       d="m 25.939785,-252.57316 v -103.39388 l 63.709075,0.56991 c 56.38982,0.51293 64.66187,0.87768 72.00256,3.28843 13.59924,4.46815 21.87201,9.37001 28.48851,16.88666 8.58163,9.74958 11.23319,19.44844 10.41773,38.10754 -0.67217,15.37866 -2.9825,22.02105 -10.95555,31.4965 l -3.85954,4.58784 8.82366,8.82346 c 12.02651,12.02697 14.34422,19.14923 13.57059,41.70543 -0.49012,14.2924 -1.18263,18.15302 -4.56247,25.43942 -7.89305,17.01546 -24.98836,28.90394 -48.26797,33.56587 -9.28769,1.85793 -23.45014,2.32526 -70.49465,2.32526 H 25.9395 Z"
       id="path47" />
    <g
       id="g89"
       style="fill:#ffffff">
      <path
         id="path45"
         d="m 141.56602,-205.30761 c 4.94922,-4.95258 5.53744,-13.00666 1.29263,-17.69708 -4.52919,-5.00388 -12.23442,-6.29132 -34.73795,-5.80005 l -21.110701,0.45593 -0.444535,11.93009 c -0.244495,6.56146 -0.07865,12.88356 0.368736,14.04961 0.66384,1.72685 5.385209,2.02891 25.67199,1.64136 24.77029,-0.45593 24.87314,-0.51292 28.96017,-4.58214 z"
         style="fill:#ffffff;fill-opacity:1;stroke-width:1.50790691" />
      <path
         id="path43"
         d="m 135.39725,-282.33596 c 4.71077,-5.48261 4.72433,-12.15863 0.0342,-16.84848 -4.687,-4.68472 -10.06859,-5.551 -31.08058,-5.00958 l -17.340923,0.45594 -0.447956,11.1681 c -0.246204,6.14258 -0.07865,12.13013 0.372156,13.30587 0.668115,1.73825 4.899013,2.04601 22.823613,1.64706 21.98444,-0.51292 22.00661,-0.51292 25.63904,-4.71891 z"
         style="fill:#ffffff;fill-opacity:1;stroke-width:1.50790691" />
    </g>
    <path
       style="fill:#000000;fill-opacity:1;stroke-width:1.50790691"
       d="m 238.55468,-154.85907 c 0,-0.6326 7.8747,-22.51915 17.49934,-48.62993 9.62464,-26.11078 18.74862,-51.03669 20.27552,-55.39029 l 2.77619,-7.91673 h -4.44251 c -3.93084,0 -4.44251,0.51293 -4.44251,4.52515 0,4.35417 -0.25133,4.52514 -6.78558,4.52514 -6.53426,0 -6.78558,-0.17097 -6.78558,-4.52514 0,-4.35417 0.25133,-4.52515 6.78558,-4.52515 h 6.78558 v -8.29344 -8.29344 h 6.03163 c 5.2213,0 6.04452,0.45593 6.12762,3.39101 0.0918,3.23713 10.1639,-20.21042 10.36337,-24.12633 0.0528,-1.03725 -1.60039,-1.88642 -3.67381,-1.88642 -3.63442,0 -3.76977,-0.34195 -3.76977,-9.80145 v -9.80087 h -4.52373 -4.52372 v -17.34146 -17.34088 h 4.52372 4.52373 v -11.30887 -11.30945 h 5.27766 c 5.02633,0 5.27767,-0.22797 5.27767,-5.27744 0,-5.15205 0.14362,-5.27744 6.03162,-5.27744 h 6.03163 v -8.29344 -8.29344 h 5.27767 c 4.85883,0 5.27766,-0.34195 5.27766,-4.52514 v -4.52515 h 12.81721 12.81721 v -5.27744 -5.27744 h 15.83302 15.83303 v 5.27744 5.27744 h 12.81693 12.8172 v 4.52515 c 0,4.16609 0.41889,4.52514 5.27767,4.52514 h 5.27766 v 8.29344 c 0,8.20967 0.0457,8.29344 4.52373,8.29344 4.16467,0 4.52372,0.39895 4.52372,5.27744 0,5.24894 0.0359,5.27744 6.78558,5.27744 h 6.78558 v 11.30945 11.30887 h 4.52372 4.52372 v 17.34088 17.34146 h -4.52372 -4.52372 v 9.80087 9.80145 h -6.78558 -6.78558 v 11.30944 11.30945 h -4.52372 c -3.70595,0 -4.52373,0.62121 -4.52373,3.4423 0,2.53613 35.36337,100.74548 44.5043,123.5969 0.98425,2.46204 -0.98721,2.63872 -29.17657,2.63872 h -30.23215 l -5.34172,-9.42473 c -2.93799,-5.18625 -5.35221,-8.23702 -5.36498,-6.78544 -0.0176,2.00611 -1.2887,2.63872 -5.30092,2.63872 -4.85883,0 -5.27766,0.34195 -5.27766,4.52514 v 4.52515 h -15.83303 -15.83302 v -4.52515 c 0,-4.35417 -0.25134,-4.52514 -6.78558,-4.52514 h -6.78559 v -6.78544 -6.78544 h 27.96824 27.96823 l -0.4491,-9.42473 -0.44909,-9.42416 -27.51931,-0.39894 -27.5193,-0.39894 v 5.9904 5.99041 l -8.64682,0.45593 -8.64681,0.45594 -5.30132,16.9596 -5.30131,16.96018 -32.04303,0.005 c -17.62367,0.003 -32.04303,-0.51292 -32.04303,-1.15123 z"
       id="path41" />
    <path
       style="fill:#000000;fill-opacity:1;stroke-width:1.50790691"
       d="m 307.9184,-367.07189 c 0,-6.74953 0.0279,-6.78544 5.27767,-6.78544 4.85883,0 5.27766,-0.34195 5.27766,-4.52514 0,-4.27439 0.33512,-4.52515 6.03163,-4.52515 5.88801,0 6.03163,-0.11398 6.03163,-5.27744 0,-5.24894 0.0359,-5.27744 6.78558,-5.27744 6.74968,0 6.78558,0.0279 6.78558,5.27744 0,5.24894 -0.0359,5.27744 -6.78558,5.27744 -6.53426,0 -6.78558,0.17097 -6.78558,4.52515 0,4.27438 -0.33511,4.52514 -6.03163,4.52514 h -6.03191 v 6.78544 c 0,6.74954 -0.0279,6.78544 -5.27767,6.78544 -5.24974,0 -5.27766,-0.0359 -5.27766,-6.78544 z"
       id="path35" />
    <path
       style="fill:#000000;fill-opacity:1;stroke-width:1.50790691"
       d="m 912.30769,-178.20631 c -0.46733,-4.8386 -0.56421,-4.89559 -7.44586,-4.40547 l -6.97339,0.51293 -1.06233,-7.08351 c -1.06062,-7.07267 -1.06974,-7.08179 -6.22082,-6.24629 -3.44116,0.56991 -5.16517,0.22796 -5.17941,-0.95177 -0.012,-0.98595 -0.40465,-3.23143 -0.87996,-4.99247 -0.73234,-2.72991 -0.0383,-3.35682 4.69783,-4.24589 5.26319,-0.98596 5.52593,-1.31081 4.96399,-6.12491 -0.58816,-5.03807 -0.53003,-5.08936 6.67271,-6.08159 7.24593,-0.99735 7.26343,-1.01445 6.34278,-5.9203 -0.79959,-4.26299 -0.45023,-5.04947 2.59826,-5.86388 6.54077,-1.74965 7.02548,-1.22533 8.10291,8.83828 0.57847,5.40282 1.64707,10.19013 2.37485,10.63979 1.39687,0.86628 54.36165,-5.20905 55.57723,-6.37453 0.38754,-0.39894 0.50723,-3.01486 0.26216,-5.87528 -0.43314,-5.04947 -0.29066,-5.19765 5.01072,-5.19765 5.38116,0 5.4524,-0.057 5.01641,-5.65358 -0.42174,-5.38572 -0.21087,-5.67638 4.45847,-6.12718 2.69514,-0.28496 4.92067,-0.94037 4.94574,-1.51029 0.0247,-0.56991 -3.48219,-30.78125 -7.79316,-67.13743 -6.65784,-56.14829 -7.51614,-66.30593 -5.69969,-67.45603 3.78824,-2.39935 7.33107,-1.52738 8.10109,1.99472 0.41034,1.86933 4.17807,32.91046 8.37745,68.98682 4.19913,36.07692 8.00343,67.46001 8.45363,69.74082 0.7705,3.90393 0.5015,4.149 -4.5788,4.149 -5.29165,0 -5.39765,0.11398 -5.39765,6.03144 0,5.69917 -0.25077,6.032 -4.52344,6.032 -4.27267,0 -4.524,0.34196 -4.524,6.03144 0,5.23185 -0.45024,6.03942 -3.39272,6.089 -6.49427,0.11399 -61.01687,7.03849 -62.47386,7.93896 -0.88907,0.56991 -1.01902,4.05211 -0.33056,8.89527 2.20046,15.46529 2.00896,16.28255 -3.82528,16.28255 -4.74457,0 -5.22216,-0.39894 -5.65473,-4.90129 z"
       id="path33" />
    <path
       style="fill:#000000;fill-opacity:1;stroke-width:1.50790691"
       d="m 463.23284,-253.22457 c 0,-4.35417 -0.25134,-4.52515 -6.78558,-4.52515 -6.53426,0 -6.78559,-0.17097 -6.78559,-4.52514 0,-4.02362 -0.50266,-4.52515 -4.52372,-4.52515 -4.35616,0 -4.52372,-0.22797 -4.52372,-6.78544 0,-6.53467 0.16756,-6.78544 4.52372,-6.78544 4.35617,0 4.52372,0.22797 4.52372,6.78544 v 6.78544 h 6.78559 c 6.53426,0 6.78558,0.17098 6.78558,4.52515 0,4.02362 0.50267,4.52514 4.52372,4.52514 4.02111,0 4.52372,0.51293 4.52372,4.52515 0,4.01792 -0.50267,4.52514 -4.52372,4.52514 -4.02111,0 -4.52372,-0.51292 -4.52372,-4.52514 z"
       id="path31" />
    <path
       style="fill:#000000;fill-opacity:1;stroke-width:1.50790691"
       d="m 227.99933,-346.715 v -4.52515 h 15.83303 15.83302 v 4.52515 4.52515 h -15.83331 -15.83302 z"
       id="path29" />
    <path
       style="fill:#000000;fill-opacity:1;stroke-width:1.50790691"
       d="m 457.20121,-346.715 v -4.52515 h 17.34065 17.34095 v 4.52515 4.52515 h -17.34095 -17.34094 z"
       id="path27" />
    <path
       style="fill:#000000;fill-opacity:1;stroke-width:1.50790691"
       d="m 908.06546,-398.64248 c 0,-5.15205 0.21656,-5.37432 5.37318,-5.37432 5.15376,0 5.35381,0.22797 4.90072,4.90129 -0.41604,4.30858 -1.06404,4.95829 -5.37318,5.37433 -4.70068,0.45593 -4.90072,0.22796 -4.90072,-4.9013 z"
       id="path25" />
    <path
       style="fill:#000000;fill-opacity:1;stroke-width:1.50790691"
       d="m 918.02813,-407.90877 c -2.89917,-7.5554 -4.5052,-7.13822 53.74637,-13.95386 30.0639,-3.51639 55.8491,-6.36997 57.3005,-6.33749 4.2841,0.11399 3.6081,8.84342 -0.754,9.7644 -3.1083,0.65541 -106.18468,12.94226 -108.40798,12.92118 -0.53573,-0.005 -1.38148,-1.08285 -1.88472,-2.39366 z"
       id="path23" />
    <path
       style="fill:#000000;fill-opacity:1;stroke-width:1.50790691"
       d="m 279.26789,-428.89598 v -6.78544 h -6.78559 c -6.53426,0 -6.78558,-0.17098 -6.78558,-4.52515 0,-4.02362 -0.50267,-4.52515 -4.52372,-4.52515 -4.16467,0 -4.52372,-0.39894 -4.52372,-5.27743 0,-4.8557 0.35905,-5.27744 4.52372,-5.27744 4.16467,0 4.52372,0.39894 4.52372,5.27744 0,5.24894 0.0359,5.27743 6.78558,5.27743 6.53426,0 6.78559,0.17098 6.78559,4.52515 0,4.02362 0.50266,4.52515 4.52372,4.52515 4.35616,0 4.52372,0.22796 4.52372,6.78544 0,6.5341 -0.16756,6.78543 -4.52372,6.78543 -4.35617,0 -4.52372,-0.22796 -4.52372,-6.78543 z"
       id="path21" />
    <path
       style="fill:#000000;fill-opacity:1;stroke-width:1.50790691"
       d="m 437.59813,-428.89598 c 0,-6.53411 0.16756,-6.78544 4.52372,-6.78544 4.02111,0 4.52372,-0.51293 4.52372,-4.52515 0,-4.1661 0.41889,-4.52515 5.27767,-4.52515 5.02633,0 5.27766,-0.22796 5.27766,-5.27743 0,-5.15206 0.14362,-5.27744 6.03164,-5.27744 5.88801,0 6.03162,0.11398 6.03162,5.27744 0,5.15205 -0.14362,5.27743 -6.03162,5.27743 -5.69656,0 -6.03164,0.22797 -6.03164,4.52515 0,4.1661 -0.41889,4.52515 -5.27766,4.52515 -5.24974,0 -5.27767,0.0359 -5.27767,6.78544 0,6.5341 -0.16755,6.78543 -4.52372,6.78543 -4.35616,0 -4.52372,-0.22796 -4.52372,-6.78543 z"
       id="path19" />
    <path
       style="fill:#000000;fill-opacity:1;stroke-width:1.50790691"
       d="m 353.15533,-465.83976 v -18.09488 h 5.27767 5.27766 v 18.09488 18.09489 h -5.27766 -5.27767 z"
       id="path28" />
    <g
       id="g990"
       transform="matrix(8.2482804,0,0,-8.2482804,29.869987,-262.97023)" />
    <g
       id="g117"
       style="fill:#ffff00;fill-opacity:1">
      <path
         id="path39"
         d="m 384.82167,-225.32881 v -9.80088 h -26.38866 -26.38837 v 9.80088 9.80144 h 26.38837 26.38837 z"
         style="fill:#ffff00;fill-opacity:1;stroke-width:1.50790691"
         inkscape:connector-curvature="0" />
      <path
         id="path37"
         d="m 353.15562,-291.67634 v -33.92777 h -8.29378 c -8.2097,0 -8.29348,-0.0462 -8.29348,-4.52515 v -4.52514 h 21.11069 21.1107 v 4.52514 c 0,4.42256 -0.16755,4.52515 -7.53953,4.52515 h -7.53954 v 33.92777 33.92776 h 11.30931 11.3093 v -4.52514 c 0,-4.42256 0.16756,-4.52515 7.53953,-4.52515 h 7.53954 v -8.29344 -8.29344 h 5.27767 5.27766 v -11.30945 -11.30944 h 4.52372 4.52372 v -9.80145 -9.80087 h 6.78559 6.78558 v -17.34146 -17.34088 h -6.78558 -6.78559 v -11.30887 -11.30945 h -4.52372 c -4.16467,0 -4.52372,-0.39894 -4.52372,-5.27744 0,-5.02667 -0.25133,-5.27744 -5.27766,-5.27744 h -5.27767 v -8.29344 -8.29344 h -12.81721 -12.81721 v -4.52514 -4.52515 h -15.83303 -15.83302 v 4.52515 4.52514 h -12.81721 -12.81721 v 8.29344 8.29344 h -5.27766 c -5.02633,0 -5.27767,0.22797 -5.27767,5.27744 0,5.15206 -0.14362,5.27744 -6.03162,5.27744 h -6.03163 v 11.30945 11.30887 h -5.27767 -5.27766 v 17.34088 17.34146 h 5.40139 5.4014 l -0.50096,10.17816 -0.50096,10.17816 6.40861,-0.51293 6.4086,-0.51292 v 11.46161 11.46104 h 5.19885 5.19884 l 0.45594,7.91616 0.45593,7.91672 5.65467,0.45594 c 5.14572,0.39894 5.65466,0.86627 5.65466,4.90129 v 4.43396 h 11.3093 11.30931 z"
         style="fill:#ffff00;fill-opacity:1;stroke-width:1.50790691"
         inkscape:connector-curvature="0" />
      <path
         id="path39-3"
         d="m 386.22185,-190.51393 v -9.80088 H 357.9433 329.66506 v 9.80088 9.80144 h 28.27824 28.27824 z"
         style="fill:#ffff00;fill-opacity:1;stroke-width:1.56096959"
         inkscape:connector-curvature="0" />
    </g>
  </g>
</svg>
