<svg xmlns="http://www.w3.org/2000/svg" data-year="2019" viewBox="0 0 99 73" width="75" height="56">
    <style>
        .st1{fill-rule:evenodd;clip-rule:evenodd;fill:#fff}
    </style>
    <path fill="#fff" fill-rule="evenodd" d="M99.2 36.6c0 20.1-22 36.5-49.6 36.5S0 56.8 0 36.6C0 16.5 22 .1 49.6.1s49.6 16.4 49.6 36.5" clip-rule="evenodd"></path>
    <path fill="red" fill-rule="evenodd" d="M17.2 59.9c8.2-6.1 19.7-9.9 32.4-9.9s24.1 3.8 32.4 9.9c8-6 13-14.2 13-23.3C95 18.3 74.6 3.5 49.5 3.5S4.1 18.3 4.1 36.6c0 9.1 5 17.3 13.1 23.3" clip-rule="evenodd"></path>
    <path fill="#50b400" fill-rule="evenodd" d="M23.8 63.9c7.3 3.7 16.2 5.8 25.7 5.8 11.2 0 21.5-3 29.4-7.9-8.6-5.9-21.2-8.6-34.5-6.2-7.8 1.4-14.9 4.4-20.6 8.3" clip-rule="evenodd"></path>
    <path d="M47.1 32.3c0-2.2.9-3.5 2.7-3.5 1.6 0 2.7 1.4 2.9 2.5.2 1.5-2.5 3.1-4.6 4.5-.8-1.1-1-2.2-1-3.5zm6.9 7.9c-2-.5-3.7-1.4-5-3l3.8-2.6c4-2.6 5.5-4.5 5.5-6.2 0-2-2.2-3.8-4.7-3.8-2.1 0-4.8 1.1-7.6 3.9-2.2 2.3-3.3 4.7-3.3 7.5 0 2 .8 4 2.3 5.6 1.7 1.9 4.7 3.3 6.9 3.1l6.8-4.7c-.1.2-2.6.8-4.7.2zm21.1-26S69 16.4 69 20.6v29l6.1 1.7c.1 0 0-37.1 0-37.1m-15 10.6V47l6 1.6V18.8c-.1-.1-6 2.3-6 6m-30.2 21V32.3s5.3.7 5.4 6.5c0 6.2-5.4 7-5.4 7zm.1-26.2s4.6 1.7 4.7 4.9C34.8 28.9 30 30 30 30V19.6zM33.6 31s6.8-1.9 6.6-6.5c-.1-4-6.2-6.8-16.3-10.2v37.1s6.1-1.7 8.5-2.6c3.5-1.2 9.1-2.6 9.1-9.5 0-6.2-7.9-8.3-7.9-8.3z" class="st1"></path>
</svg>