<svg id="Ebene_1" data-name="Ebene 1" xmlns="http://www.w3.org/2000/svg" viewBox="0 0 280 34"><defs><style>.cls-2{fill:#231f20}.cls-4{fill-rule:evenodd;fill:#fff}</style></defs><path fill="none" d="M-30.08-39.69h340.16V73.7H-30.08z"/><path class="cls-2" d="M.61 10.39h11.53V13H3.62v6.86h6.89v2.58H3.62v7.87h9v2.59H.61zM16.25 16.53h2.19l.42 2a7.15 7.15 0 0 1 5-2.45c2.35 0 3.95 1.2 3.95 4V32.9H25V21c0-1.86-.53-2.38-2-2.38a6.66 6.66 0 0 0-4 2V32.9h-2.75zM31.63 24.83c0-6.14 1.8-8.72 5.62-8.72a6.37 6.37 0 0 1 4.34 2V9.25h2.81V32.9h-2.18l-.46-1.7a6 6 0 0 1-4.54 2.12c-3.14 0-5.59-1.76-5.59-8.49zm10 4.31v-8.85A5.52 5.52 0 0 0 38 18.52c-2.32 0-3.33.85-3.33 6.11s.85 6.27 3.07 6.27a5.31 5.31 0 0 0 3.85-1.76zM49.1 16.53h2.19l.45 2.32a6 6 0 0 1 4.61-2.61 1.7 1.7 0 0 1 .59.09l-.33 3a3.14 3.14 0 0 0-1-.13 5.07 5.07 0 0 0-3.72 1.67v12H49.1zM58.59 24.7c0-6.21 2.55-8.59 6.41-8.59s6.1 2.22 6.1 8.13v1.11h-9.5c.06 4.48 1 5.59 3.75 5.59a5.69 5.69 0 0 0 3.86-1.54l1.54 2a7.77 7.77 0 0 1-5.46 1.89c-4.29.03-6.7-2.45-6.7-8.59zm3-1.47h6.5c0-3.76-.85-4.9-3.2-4.9-1.89 0-3.03.98-3.26 4.9zM73.29 31.56l1.18-2.09A7.59 7.59 0 0 0 78.85 31c2.22 0 2.9-.88 2.9-2.42 0-1.83-.85-2.19-3.46-2.91-2.29-.67-4.18-1.85-4.18-5.09 0-2.38 1.54-4.47 5.13-4.47a8.78 8.78 0 0 1 4.54 1.07l-1 2.22a6.92 6.92 0 0 0-3.46-.91c-1.77 0-2.58.62-2.58 2s.68 1.92 2.94 2.54c2.51.69 4.8 1.67 4.8 5.36 0 3.4-1.93 4.9-5.78 4.9a9.3 9.3 0 0 1-5.41-1.73zM86.65 31.56l1.18-2.09A7.59 7.59 0 0 0 92.21 31c2.22 0 2.91-.88 2.91-2.42 0-1.83-.85-2.19-3.47-2.91-2.28-.62-4.18-1.82-4.18-5.06 0-2.38 1.54-4.47 5.13-4.47a8.78 8.78 0 0 1 4.54 1.07l-1 2.22a6.92 6.92 0 0 0-3.46-.91c-1.77 0-2.58.62-2.58 2s.68 1.92 2.94 2.54c2.51.69 4.8 1.67 4.8 5.36 0 3.4-1.93 4.9-5.78 4.9a9.3 9.3 0 0 1-5.41-1.76zM108.08 24.57h-5.25v-2.45h5.25v-5.79h2.65v5.79H116v2.45h-5.23v5.78h-2.65zM122.39 10.39h3v9.21h8.1v-9.21h3V32.9h-3V22.25h-8.1V32.9h-3zM140.35 28.22c0-3.72 2.19-5.45 7.55-5.45h1.34V21.5c0-1.83-.23-2.94-2.36-2.94a10.14 10.14 0 0 0-4.76 1.5L141 17.9a11.44 11.44 0 0 1 6.14-1.79c3.2 0 4.87 1.43 4.87 4.93V32.9h-2.19l-.46-1.64a5.6 5.6 0 0 1-4.12 2.06c-3.09 0-4.89-1.73-4.89-5.1zm8.89.92v-4.35h-1c-4.12 0-4.9 1.05-4.9 3.43 0 2.16.68 2.88 2.28 2.88a5 5 0 0 0 3.62-1.96zM156.34 29.14V16.53h2.81v11.73c0 1.93.65 2.58 2.12 2.58a6.47 6.47 0 0 0 3.92-2V16.53H168V32.9h-2.18l-.43-2a6.84 6.84 0 0 1-4.87 2.45 3.86 3.86 0 0 1-4.18-4.21zM171.3 31.56l1.18-2.09a7.59 7.59 0 0 0 4.38 1.5c2.22 0 2.9-.88 2.9-2.42 0-1.83-.85-2.19-3.46-2.91-2.29-.62-4.18-1.82-4.18-5.06 0-2.38 1.54-4.47 5.13-4.47a8.78 8.78 0 0 1 4.54 1.07l-1 2.22a6.92 6.92 0 0 0-3.46-.91c-1.77 0-2.58.62-2.58 2s.68 1.92 2.94 2.54c2.51.69 4.8 1.67 4.8 5.36 0 3.4-1.93 4.9-5.78 4.9a9.3 9.3 0 0 1-5.41-1.73zM185.22 24.7c0-6.21 2.55-8.59 6.4-8.59s6.11 2.22 6.11 8.13v1.11h-9.5c.06 4.48 1 5.59 3.75 5.59a5.69 5.69 0 0 0 3.86-1.54l1.53 2a7.74 7.74 0 0 1-5.45 1.89c-4.28.03-6.7-2.45-6.7-8.59zm3-1.47h6.5c0-3.76-.85-4.9-3.2-4.9-1.86 0-3.03.98-3.26 4.9zM201.31 16.53h2.19l.46 2.32a6 6 0 0 1 4.61-2.61 1.64 1.64 0 0 1 .58.09l-.32 3a3.18 3.18 0 0 0-1-.13 5.09 5.09 0 0 0-3.73 1.67v12h-2.81z"/><path d="M277.16 1a4.07 4.07 0 0 0-1-.12h-46.04a3.82 3.82 0 0 0-3.69 2.83l-6.53 24.37a3.84 3.84 0 0 0 2.71 4.69 4.14 4.14 0 0 0 1 .13h46a3.83 3.83 0 0 0 3.69-2.84l6.53-24.35A3.83 3.83 0 0 0 277.16 1z" fill-rule="evenodd" fill="#00aeef"/><path class="cls-4" d="M248.74 29.84h-18.62a.77.77 0 0 1-.76-.77V4.72a.77.77 0 0 1 .76-.77h18.62l-1.88 7h-9.21v2.42H244l-1.88 7h-4.44v2.42h11.09z"/><path class="cls-4" d="M270.41 29.07a.77.77 0 0 1-.76.77h-7.52V20.4h-2.55v9.44h-8.29V20.4h-7l1.88-7h5.08V4h8.29v9.44h2.55V4h7.52a.77.77 0 0 1 .76.77z"/></svg>