<svg width="128px" height="38px" viewBox="0 0 128 38" version="1.1" xmlns="http://www.w3.org/2000/svg" xmlns:xlink="http://www.w3.org/1999/xlink">
    <g stroke="none" stroke-width="1" fill="none" fill-rule="evenodd">
        <g id="Group">
            <path d="M47.9817583,22.9261354 C43.5008931,22.9261354 39.8888814,19.3445512 39.8888814,14.9325192 C39.8888814,10.5204871 43.5008931,6.93890296 47.9817583,6.93890296 C52.4312731,6.93890296 56.0432849,10.5204871 56.0432849,14.9325192 C56.0432849,19.3445512 52.4312731,22.9261354 47.9817583,22.9261354 Z M61.6236527,4.08340561 C57.8481711,1.48770079 52.7335804,0.384137668 47.9817583,0.384137668 C39.0827287,0.384137668 28.6676842,4.15668043 28.6676842,14.8370399 C28.6676842,16.2448045 28.8938548,17.5548694 29.1177861,18.6739756 C27.2166094,20.7834021 24.0882893,22.8617424 20.2187565,22.8617424 C15.1243196,22.8617424 11.5123078,19.6332096 11.5123078,14.6771675 C11.5123078,10.0719564 15.0907299,6.68355133 19.7664153,6.68355133 C22.1199332,6.68355133 23.8621187,7.48291295 24.8295019,8.12240225 L28.5713938,2.24043299 C26.6993282,1.31228533 23.055966,0 18.2190501,0 C9.06026015,0 0,4.89164903 0,14.7415606 C0,24.5559449 8.15781703,29.6096867 17.9301787,29.6096867 C24.1196397,29.6096867 29.0864358,26.5388058 31.8900556,23.4701454 C35.535657,27.4025605 41.6937676,29.2588558 47.9817583,29.2588558 C52.594743,29.2588558 57.7832311,28.2130243 61.6236527,25.595115 L61.6236527,4.08340561 Z" id="Fill-1" fill="#EA5B0C"></path>
            <path d="M108.400803,23.0216147 L108.304513,23.0216147 C103.790058,22.9572217 100.113106,19.4711168 100.113106,14.4839885 C100.113106,9.68781876 103.886349,6.17062762 108.304513,6.13732089 L108.400803,6.13732089 C113.045138,6.13732089 116.52727,9.81660479 116.52727,14.4195955 C116.52727,18.8649343 113.141429,23.0216147 108.400803,23.0216147 M75.7023559,22.4132117 C71.2528411,22.4132117 67.6408293,18.8316275 67.6408293,14.4195955 C67.6408293,9.97647712 71.2528411,6.39489297 75.7023559,6.39489297 C80.15411,6.39489297 83.7661218,9.97647712 83.7661218,14.4195955 C83.7661218,18.8316275 80.15411,22.4132117 75.7023559,22.4132117 M110.463211,0.575096277 C109.721998,0.575096277 109.012136,0.639489297 108.304513,0.703882316 C104.983612,1.08801998 102.370334,2.26929882 100.339277,3.67706346 L100.339277,1.05471325 L91.4066575,1.05471325 L91.4066575,5.30687298 C87.6356545,1.53433022 80.9602626,0 75.7359456,0 L75.7023559,0 C70.9505338,0 65.7911568,1.09912223 62,3.73035423 L62,25.1510252 C65.7665244,27.7622732 70.9012689,28.8724977 75.7023559,28.8724977 L75.7359456,28.8724977 C81.7328256,28.8724977 87.4072446,26.9873365 91.2140766,23.78989 L91.2140766,37.2191652 L100.339277,37.2191652 L100.339277,25.2909135 C101.759001,26.6031988 104.466331,28.2330084 108.304513,28.7126253 C109.077076,28.8081046 109.885468,28.8724977 110.722971,28.8724977 C117.913405,28.8724977 127.296126,24.5892516 127.296126,14.5150748 C127.296126,5.14700066 119.718291,0.575096277 110.463211,0.575096277" id="Fill-3" fill="#F59C00"></path>
            <path d="M61.6117182,25.5183707 C58.3221675,23.2801582 56,19.7940534 56,14.7758387 C56,9.78648996 58.2572274,6.30260556 61.6117182,4 C64.9326193,6.30260556 67.2211971,9.78648996 67.2211971,14.7758387 C67.2211971,19.7940534 64.9326193,23.2490719 61.6117182,25.5183707" id="Fill-6" fill="#C9450A"></path>
        </g>
    </g>
</svg>