<svg xmlns="http://www.w3.org/2000/svg" xmlns:xlink="http://www.w3.org/1999/xlink" width="723.502" height="299.258" viewBox="0 0 723.502 299.258">
  <defs>
    <clipPath id="clip-path">
      <rect id="Rechteck_2" data-name="Rechteck 2" width="723.502" height="299.258" fill="none"/>
    </clipPath>
  </defs>
  <g id="Gruppe_1" data-name="Gruppe 1" clip-path="url(#clip-path)">
    <path d="M593.281,1.065V3.708c47.282,8.93-4.3,107.817-16.908,167.653L520.815,1.065h-3.624L468.88,168.041c-2.319-6.749-23.072-66.369-37.174-106.383l-.008,0C407.68-12.4,318.093.824,241.275,1.056v.01H241.1V3.708c17.211,0,19.022,10.04,19.022,32.082v65.152H143.871V35.79c0-22.042,1.812-32.082,19.023-32.082V1.066H98.579V3.708c17.211,0,18.721,10.04,19.023,32.082V177.7c-.3,22.042-1.812,32.082-19.023,32.082v2.641h64.315v-2.641c-17.211,0-19.023-10.04-19.023-32.082V104.717H260.119V177.7c0,21.275-1.692,31.365-17.285,32.043q-.758.028-1.559.029v.007c-.061,0-.118,0-.178,0v2.641h2.086c77.974.4,168.53,13.479,189.981-65.339l21.223,65.339h4.983l48.915-167.88,54.2,167.88h5.284s39.553-135.271,48.311-163.05C624.532,22.5,638.571,7.331,657.9,3.708V1.065ZM305.588,209.775c-17.205-.452-19.022-11.173-19.022-33.215V36.913c-.067-1.252-.108-2.441-.136-3.6A109.452,109.452,0,0,1,287.4,19c2.418-11.776,9.1-14.8,18.88-15.413,0,0,3.181-.305,7.216-.271,5.2.042,15.342.381,15.342.381,39.949.841,80.619,22.419,80.619,103.038-1.8,94.941-47.988,104.506-103.869,103.039" fill="#161615"/>
    <path d="M25.326,298.609V279.061H2.43v19.548H0V259.188H2.43V276.9h22.9V259.188h2.431v39.421Z" fill="#161615"/>
    <path d="M71.582,298.609l-5.4-15.12H51.6l-5.4,15.12H43.61l14.634-40.068h1.35l14.58,40.068Zm-12.69-35.587-6.534,18.307H65.426Z" fill="#161615"/>
    <path d="M102.464,299.258c-7.831,0-14.04-5.94-14.04-14.959v-25.11h2.43V284.3c0,7.236,5.183,12.69,11.61,12.69s11.664-5.454,11.664-12.69v-25.11h2.43V284.3c0,9.019-6.264,14.959-14.094,14.959" fill="#161615"/>
    <path d="M142.866,299.258a15.3,15.3,0,0,1-10.368-4.1l1.566-1.728a13.149,13.149,0,0,0,8.8,3.563c4.536,0,8.532-3.078,8.532-7.668,0-5.616-4.59-7.938-9.126-10.314-4.643-2.43-9.234-4.968-9.234-11.016,0-5.778,4.591-9.45,9.828-9.45,4.051,0,7.236,1.134,9.99,4.266l-1.836,1.566c-2.429-2.808-4.805-3.564-8.154-3.564a6.967,6.967,0,0,0-7.29,7.182c0,4.914,4.267,7.02,8.694,9.342,4.752,2.485,9.666,5.185,9.666,11.88,0,5.887-5.345,10.045-11.07,10.045" fill="#161615"/>
    <path d="M201.779,298.61h-8.1V259.189h8.1c11.34,0,20.466,6.7,20.466,19.333,0,12.582-9.018,20.088-20.466,20.088m.648-37.261h-6.318v35.1h6.318c9.774,0,17.28-7.128,17.28-17.928s-7.506-17.173-17.28-17.173" fill="#161615"/>
    <path d="M239.585,298.609V259.188h19.926v2.16h-17.5v15.391h15.768v2.16H242.015v17.55h18.522v2.16Z" fill="#161615"/>
    <path d="M296.219,298.61l-16.9-18.9v18.9h-2.43V259.189h9.666c6.7,0,12.474,4.051,12.474,10.908,0,7.236-5.994,11.286-13.068,11.286h-1.89l15.282,17.227Zm-9.666-37.261h-7.236v17.874h6.642c5.562,0,10.531-2.754,10.531-9.126,0-5.939-4.7-8.748-9.937-8.748" fill="#161615"/>
    <path d="M371.6,298.609h-1.836l-9.127-32.725a7.4,7.4,0,0,1-.323-1.566l-.324,1.513-9.181,32.778h-1.836l-12.258-39.421h2.592l10.152,33.265c.162.594.432,1.458.432,1.458s.162-.81.324-1.35l9.181-33.373h1.727l9.289,33.373c.162.54.324,1.35.324,1.35s.269-.864.431-1.458l9.883-33.265h2.538Z" fill="#161615"/>
    <path d="M440.517,298.61l-16.9-18.9v18.9h-2.43V259.189h9.666c6.7,0,12.474,4.051,12.474,10.908,0,7.236-5.994,11.286-13.068,11.286h-1.89l15.282,17.227Zm-9.666-37.261h-7.236v17.874h6.642c5.562,0,10.531-2.754,10.531-9.126,0-5.939-4.7-8.748-9.937-8.748" fill="#161615"/>
    <path d="M469.045,261.349V298.61h-2.43V261.349H456.571v-2.16h22.464v2.16Z" fill="#161615"/>
    <path d="M502.994,299.258a15.3,15.3,0,0,1-10.368-4.1l1.566-1.728a13.149,13.149,0,0,0,8.8,3.563c4.536,0,8.532-3.078,8.532-7.668,0-5.616-4.59-7.938-9.126-10.314-4.643-2.43-9.234-4.968-9.234-11.016,0-5.778,4.591-9.45,9.828-9.45,4.051,0,7.236,1.134,9.99,4.266l-1.836,1.566c-2.429-2.808-4.805-3.564-8.154-3.564a6.967,6.967,0,0,0-7.29,7.182c0,4.914,4.267,7.02,8.694,9.342,4.752,2.485,9.666,5.185,9.666,11.88,0,5.887-5.345,10.045-11.07,10.045" fill="#161615"/>
    <path d="M547.663,299.258c-10.584,0-19.062-8.8-19.062-20.358,0-10.746,8.316-20.359,19.062-20.359a17.835,17.835,0,0,1,14.04,6.21l-1.727,1.566a15.813,15.813,0,0,0-12.367-5.508c-9.666,0-16.47,8.532-16.47,17.928,0,10.314,7.128,18.252,16.632,18.252,5.995,0,9.558-2.429,13.014-6.156l1.674,1.458a18.984,18.984,0,0,1-14.8,6.967" fill="#161615"/>
    <path d="M603.941,298.609V279.061h-22.9v19.548h-2.43V259.188h2.43V276.9h22.9V259.188h2.43v39.421Z" fill="#161615"/>
    <path d="M650.2,298.609l-5.4-15.12h-14.58l-5.4,15.12h-2.592l14.634-40.068h1.35l14.58,40.068Zm-12.69-35.587-6.534,18.307h13.068Z" fill="#161615"/>
    <path d="M671.073,261.349v15.606H684.79v2.161H671.073V298.61h-2.43V259.189h17.605v2.16Z" fill="#161615"/>
    <path d="M713.511,261.349V298.61h-2.43V261.349H701.037v-2.16H723.5v2.16Z" fill="#161615"/>
  </g>
</svg>
