<svg xmlns="http://www.w3.org/2000/svg" width="95.46" height="20.48" viewBox="0 0 95.46 20.48" id="svg34">
  <path id="polygon4" fill="#e13614" d="M20.58.38l.74 19.7L0 19.74.47 6.72l2.36-5.33z"/>
  <path d="M89.31 14.9l1.56 5.2h4.59l-7-19.71h-5.71l-6.99 19.7h4.59l1.53-5.19h7.43zm-.9-2.76H82.8l1.39-4.7c.43-1.45.88-2.96 1.3-4.7h.22c.43 1.75.88 3.2 1.33 4.7zM69.64 13.6c-.36 2.12-1.6 4.1-3.9 4.1-2.4 0-4.51-1.89-4.51-7.43 0-5.43 1.98-7.47 4.56-7.47 2.1 0 3.14 1.36 3.68 3.73l4.24-.38C72.85 1.9 69.7 0 65.8 0c-2.47 0-4.57.8-6.16 2.29-1.76 1.7-2.75 4.35-2.75 7.84 0 4.03 1.09 6.6 2.78 8.19 1.58 1.5 3.85 2.16 6.1 2.16a8.19 8.19 0 0 0 8.16-6.39zm-13.98 3.7H47.4V.39h-4.22v19.7h12.48zM36.74 8.57v2.77h-6.98v5.99h9.66v2.76H25.54V.4h13.62v2.77h-9.4v5.4h6.98z" id="path6"/>
</svg>
